<?xml version="1.0" standalone="no"?>
<!DOCTYPE svg PUBLIC "-//W3C//DTD SVG 20010904//EN"
 "http://www.w3.org/TR/2001/REC-SVG-20010904/DTD/svg10.dtd">
<svg version="1.0" xmlns="http://www.w3.org/2000/svg"
 width="1024.000000pt" height="1024.000000pt" viewBox="0 0 1024.000000 1024.000000"
 preserveAspectRatio="xMidYMid meet">

<g transform="translate(0.000000,1024.000000) scale(0.100000,-0.100000)"
fill="#000000" stroke="none">
<path d="M4810 7414 c-1006 -118 -2106 -733 -3055 -1705 -147 -151 -414 -452
-435 -490 -22 -39 466 -572 790 -863 699 -629 1479 -1070 2195 -1241 311 -74
580 -101 923 -92 457 13 851 101 1317 297 116 49 350 161 415 200 25 15 92 53
150 86 127 71 395 249 556 370 406 303 855 733 1178 1127 l88 108 -95 117
c-576 711 -1323 1316 -2092 1692 -575 281 -1092 412 -1614 409 -113 -1 -258
-8 -321 -15z m630 -394 c177 -31 325 -78 554 -177 378 -162 555 -255 851 -446
241 -155 429 -299 685 -520 132 -115 580 -561 580 -578 0 -7 -30 -46 -67 -88
-265 -297 -624 -625 -928 -847 -121 -88 -427 -285 -433 -279 -2 2 5 17 17 34
30 42 84 163 115 257 30 94 67 229 61 222 -3 -2 -30 -55 -60 -117 -31 -63 -76
-146 -102 -185 -310 -482 -855 -807 -1468 -876 -134 -15 -427 -12 -562 5 -658
84 -1303 398 -1941 946 -110 94 -457 439 -546 541 l-58 68 90 97 c250 271 719
698 730 665 2 -6 -2 -37 -8 -69 -21 -113 -24 -319 -6 -446 47 -336 183 -596
450 -862 195 -194 391 -324 644 -424 180 -72 446 -142 587 -155 l60 -6 -66 14
c-250 53 -531 183 -747 346 -103 78 -253 235 -329 347 -407 594 -334 1385 180
1952 422 466 1087 691 1717 581z"/>
<path d="M4915 6744 c-459 -69 -809 -287 -1062 -664 -284 -423 -320 -987 -92
-1443 88 -174 159 -270 295 -399 33 -32 64 -58 67 -58 4 0 7 205 7 455 l0 455
250 0 250 0 0 -628 0 -628 88 -22 c48 -12 90 -22 95 -22 4 0 7 351 7 780 l0
780 250 0 250 0 0 -790 0 -790 26 0 c14 0 56 7 94 16 l70 16 2 936 3 937 225
3 c124 1 235 0 248 -3 l22 -5 0 -810 c0 -446 2 -810 5 -810 8 0 63 48 153 135
314 301 480 722 459 1159 -13 266 -90 504 -233 723 -223 344 -547 567 -954
658 -73 16 -451 30 -525 19z m1085 -421 c0 -16 -72 -370 -78 -387 -7 -17 -14
-12 -56 37 l-49 56 -68 -55 c-227 -181 -598 -376 -934 -491 -203 -69 -441
-126 -653 -158 -108 -16 -176 -16 -102 -1 260 55 728 253 1030 436 212 129
582 396 579 418 0 4 -27 30 -59 59 l-59 52 42 5 c23 3 107 11 187 17 80 6 147
13 149 15 7 7 71 4 71 -3z"/>
</g>
</svg>
